<?xml version="1.0" standalone="no"?>
<!DOCTYPE svg PUBLIC "-//W3C//DTD SVG 20010904//EN"
 "http://www.w3.org/TR/2001/REC-SVG-20010904/DTD/svg10.dtd">
<svg version="1.0" xmlns="http://www.w3.org/2000/svg"
 width="70px" height="70px" viewBox="0 0 500 500"
 preserveAspectRatio="xMidYMid meet">
<g transform="translate(0.000000,400.000000) scale(0.040000,-0.040000)"
fill="hsl(220, 50%, 20%)" stroke="none">
<path d="M1242 5938 c-7 -7 -12 -26 -12 -44 0 -27 4 -32 31 -38 54 -11 619 -7
640 4 21 12 25 41 9 71 -10 18 -25 19 -333 19 -238 0 -326 -3 -335 -12z"/>
<path d="M1287 5463 c-4 -203 -7 -553 -7 -779 l0 -410 -44 -22 c-25 -11 -72
-40 -105 -64 l-60 -43 -3 -437 -3 -437 -209 85 c-115 47 -213 83 -218 82 -9
-3 -106 -218 -115 -255 -4 -15 2 -26 21 -38 17 -11 26 -26 26 -43 0 -14 -36
-110 -80 -213 -84 -197 -110 -263 -110 -284 0 -7 21 -20 47 -30 27 -10 102
-42 167 -71 116 -52 120 -53 133 -34 17 24 50 25 116 5 l48 -14 18 42 c19 45
85 211 94 239 7 20 20 16 187 -56 l75 -32 6 -192 c4 -106 10 -196 14 -200 6
-7 565 -20 575 -14 2 2 6 95 8 208 l4 204 29 0 c46 0 61 35 72 163 5 62 10
113 11 114 2 2 198 -1 437 -6 l434 -9 75 -27 c117 -42 182 -81 264 -157 130
-119 193 -261 203 -459 5 -91 3 -116 -16 -177 -39 -130 -125 -244 -237 -314
-61 -39 -186 -81 -195 -67 -4 7 -10 41 -14 75 l-7 64 -1454 0 -1454 0 0 -85 0
-85 354 0 c194 0 367 -3 384 -6 l30 -6 7 -167 7 -168 301 -6 c165 -4 423 -7
572 -7 l272 0 5 -223 c3 -122 4 -223 4 -224 -1 -1 -101 47 -222 108 l-220 110
-94 -54 c-52 -30 -162 -95 -243 -146 l-148 -92 -299 -6 -300 -6 0 -98 0 -99
-212 -2 -213 -3 -3 -297 -2 -298 2145 0 2145 0 0 294 0 293 -61 7 c-34 3 -218
6 -409 6 l-347 0 -6 68 c-10 96 -8 262 1 262 47 0 250 47 323 75 110 42 194
100 303 209 156 155 225 345 226 619 0 311 -82 502 -401 928 -159 214 -651
878 -752 1017 -42 59 -119 161 -170 227 l-93 120 -231 9 -232 8 -7 59 -7 59
-177 0 -177 0 -96 145 -97 145 -2 637 -3 638 -291 3 -291 2 -6 -367z m635
-1451 c53 -26 71 -41 92 -76 23 -39 26 -56 26 -136 0 -86 -2 -94 -31 -136 -17
-25 -49 -58 -71 -75 -39 -28 -46 -29 -145 -29 l-105 0 -58 58 c-67 67 -85 115
-77 201 14 137 124 236 252 228 30 -2 77 -16 117 -35z"/>
<path d="M1715 3961 c-22 -10 -55 -35 -74 -56 -33 -38 -33 -40 -29 -110 5 -76
31 -136 66 -150 36 -14 169 -18 206 -5 30 10 42 21 57 54 57 130 18 239 -100
275 -52 15 -79 14 -126 -8z"/>
<path d="M1290 2204 c0 -17 87 -59 157 -74 88 -20 201 -14 275 13 36 14 79 34
94 44 l28 18 -59 6 c-33 4 -158 7 -277 8 -191 1 -218 -1 -218 -15z"/>
<path d="M228 1942 c-174 -2 -218 -5 -218 -16 0 -9 21 -15 67 -19 38 -4 694
-7 1459 -7 1282 0 1392 1 1398 16 4 9 4 20 0 23 -6 6 -2273 9 -2706 3z"/>
</g>
</svg>
